<svg width="30" height="18" viewBox="0 0 30 18" fill="none" xmlns="http://www.w3.org/2000/svg">
<path d="M21.1364 10.2857C19.5 10.2857 16.95 10.7229 15 11.5714C13.05 10.71 10.5 10.2857 8.86364 10.2857C5.90455 10.2857 0 11.6743 0 14.4643V18H30V14.4643C30 11.6743 24.0955 10.2857 21.1364 10.2857ZM15.6818 16.0714H2.04545V14.4643C2.04545 13.77 5.53636 12.2143 8.86364 12.2143C12.1909 12.2143 15.6818 13.77 15.6818 14.4643V16.0714ZM27.9545 16.0714H17.7273V14.4643C17.7273 13.8729 17.4545 13.3586 17.0182 12.8957C18.2182 12.51 19.6909 12.2143 21.1364 12.2143C24.4636 12.2143 27.9545 13.77 27.9545 14.4643V16.0714ZM8.86364 9C11.4955 9 13.6364 6.98143 13.6364 4.5C13.6364 2.01857 11.4955 0 8.86364 0C6.23182 0 4.09091 2.01857 4.09091 4.5C4.09091 6.98143 6.23182 9 8.86364 9ZM8.86364 1.92857C10.3636 1.92857 11.5909 3.08571 11.5909 4.5C11.5909 5.91429 10.3636 7.07143 8.86364 7.07143C7.36364 7.07143 6.13636 5.91429 6.13636 4.5C6.13636 3.08571 7.36364 1.92857 8.86364 1.92857ZM21.1364 9C23.7682 9 25.9091 6.98143 25.9091 4.5C25.9091 2.01857 23.7682 0 21.1364 0C18.5045 0 16.3636 2.01857 16.3636 4.5C16.3636 6.98143 18.5045 9 21.1364 9ZM21.1364 1.92857C22.6364 1.92857 23.8636 3.08571 23.8636 4.5C23.8636 5.91429 22.6364 7.07143 21.1364 7.07143C19.6364 7.07143 18.4091 5.91429 18.4091 4.5C18.4091 3.08571 19.6364 1.92857 21.1364 1.92857Z" fill="#747474"/>
</svg>
