<svg width="24" height="24" viewBox="0 0 24 24" fill="none" xmlns="http://www.w3.org/2000/svg">
<path d="M0 3.20833C0 2.35743 0.33802 1.54138 0.939699 0.939699C1.54138 0.33802 2.35743 0 3.20833 0H17.7917C18.6426 0 19.4586 0.33802 20.0603 0.939699C20.662 1.54138 21 2.35743 21 3.20833V10.5257C20.4546 10.176 19.8664 9.89799 19.25 9.6985V3.20833C19.25 2.40333 18.5967 1.75 17.7917 1.75H3.20833C2.40333 1.75 1.75 2.40333 1.75 3.20833V17.7917C1.75 18.5967 2.40333 19.25 3.20833 19.25H9.6985C9.90033 19.873 10.1792 20.4598 10.5257 21H3.20833C2.35743 21 1.54138 20.662 0.939699 20.0603C0.33802 19.4586 0 18.6426 0 17.7917V3.20833Z" fill="#747474"/>
<path d="M4.37494 12.25H10.9386C10.5233 12.7808 10.1779 13.37 9.91427 14H4.37494C4.14287 14 3.92031 13.9078 3.75622 13.7437C3.59213 13.5796 3.49994 13.3571 3.49994 13.125C3.49994 12.8929 3.59213 12.6704 3.75622 12.5063C3.92031 12.3422 4.14287 12.25 4.37494 12.25Z" fill="#747474"/>
<path d="M8.45827 18.0834H4.37494C4.14287 18.0834 3.92031 17.9912 3.75622 17.8271C3.59213 17.663 3.49994 17.4404 3.49994 17.2084C3.49994 16.9763 3.59213 16.7537 3.75622 16.5897C3.92031 16.4256 4.14287 16.3334 4.37494 16.3334H8.45827C8.69034 16.3334 8.9129 16.4256 9.07699 16.5897C9.24109 16.7537 9.33327 16.9763 9.33327 17.2084C9.33327 17.4404 9.24109 17.663 9.07699 17.8271C8.9129 17.9912 8.69034 18.0834 8.45827 18.0834Z" fill="#747474"/>
<path d="M8.16672 2.32983C8.34053 2.32996 8.51037 2.38185 8.65457 2.47889C8.79877 2.57592 8.91081 2.71371 8.97639 2.87467L11.5991 9.29367C11.6869 9.50856 11.6858 9.74956 11.596 9.96365C11.5062 10.1777 11.335 10.3474 11.1201 10.4353C10.9052 10.5231 10.6642 10.522 10.4502 10.4322C10.2361 10.3424 10.0664 10.1712 9.97856 9.95633L9.48506 8.74767H6.84606L6.35139 9.95633C6.26054 10.1667 6.09079 10.333 5.87862 10.4196C5.66644 10.5062 5.42878 10.506 5.2167 10.4192C5.00462 10.3325 4.83505 10.1659 4.74443 9.95547C4.65381 9.745 4.64936 9.50738 4.73206 9.29367L7.35706 2.87467C7.42264 2.71371 7.53468 2.57592 7.67888 2.47889C7.82308 2.38185 7.99291 2.32996 8.16672 2.32983ZM7.56122 6.9965H8.77106L8.16672 5.51833L7.56006 6.99767L7.56122 6.9965Z" fill="#747474"/>
<path d="M14.875 2.32983C15.107 2.32983 15.3296 2.42202 15.4937 2.58612C15.6578 2.75021 15.75 2.97277 15.75 3.20483V4.66317H17.2083C17.4404 4.66317 17.6629 4.75535 17.827 4.91945C17.9911 5.08354 18.0833 5.3061 18.0833 5.53817C18.0833 5.77023 17.9911 5.99279 17.827 6.15689C17.6629 6.32098 17.4404 6.41317 17.2083 6.41317H15.75V7.8715C15.75 8.10357 15.6578 8.32613 15.4937 8.49022C15.3296 8.65431 15.107 8.7465 14.875 8.7465C14.6429 8.7465 14.4203 8.65431 14.2562 8.49022C14.0921 8.32613 14 8.10357 14 7.8715V6.41317H12.5416C12.3096 6.41317 12.087 6.32098 11.9229 6.15689C11.7588 5.99279 11.6666 5.77023 11.6666 5.53817C11.6666 5.3061 11.7588 5.08354 11.9229 4.91945C12.087 4.75535 12.3096 4.66317 12.5416 4.66317H14V3.20483C14 2.97277 14.0921 2.75021 14.2562 2.58612C14.4203 2.42202 14.6429 2.32983 14.875 2.32983Z" fill="#747474"/>
<path d="M23.3333 16.9167C23.3333 15.2149 22.6573 13.5828 21.4539 12.3794C20.2506 11.176 18.6185 10.5 16.9167 10.5C15.2149 10.5 13.5828 11.176 12.3794 12.3794C11.176 13.5828 10.5 15.2149 10.5 16.9167C10.5 18.6185 11.176 20.2506 12.3794 21.4539C13.5828 22.6573 15.2149 23.3333 16.9167 23.3333C18.6185 23.3333 20.2506 22.6573 21.4539 21.4539C22.6573 20.2506 23.3333 18.6185 23.3333 16.9167ZM17.5 17.5L17.5012 20.4202C17.5012 20.5749 17.4397 20.7233 17.3303 20.8326C17.2209 20.942 17.0725 21.0035 16.9178 21.0035C16.7631 21.0035 16.6147 20.942 16.5054 20.8326C16.396 20.7233 16.3345 20.5749 16.3345 20.4202V17.5H13.412C13.2573 17.5 13.1089 17.4385 12.9995 17.3291C12.8901 17.2198 12.8287 17.0714 12.8287 16.9167C12.8287 16.762 12.8901 16.6136 12.9995 16.5042C13.1089 16.3948 13.2573 16.3333 13.412 16.3333H16.3333V13.4167C16.3333 13.262 16.3948 13.1136 16.5042 13.0042C16.6136 12.8948 16.762 12.8333 16.9167 12.8333C17.0714 12.8333 17.2198 12.8948 17.3291 13.0042C17.4385 13.1136 17.5 13.262 17.5 13.4167V16.3333H20.4202C20.5749 16.3333 20.7233 16.3948 20.8326 16.5042C20.942 16.6136 21.0035 16.762 21.0035 16.9167C21.0035 17.0714 20.942 17.2198 20.8326 17.3291C20.7233 17.4385 20.5749 17.5 20.4202 17.5H17.5012H17.5Z" fill="#747474"/>
</svg>
