<svg width="17" height="15" viewBox="0 0 17 15" fill="none" xmlns="http://www.w3.org/2000/svg">
  <path fill-rule="evenodd" clip-rule="evenodd"
        d="M16.8578 7.37579C16.8578 7.65519 16.7468 7.92315 16.5492 8.12072C16.3517 8.31829 16.0837 8.42928 15.8043 8.42928H3.59851L8.12222 12.9509C8.22017 13.0488 8.29786 13.1651 8.35087 13.2931C8.40388 13.4211 8.43117 13.5582 8.43117 13.6968C8.43117 13.8353 8.40388 13.9724 8.35087 14.1004C8.29786 14.2284 8.22017 14.3447 8.12222 14.4426C8.02427 14.5406 7.90798 14.6183 7.78001 14.6713C7.65203 14.7243 7.51486 14.7516 7.37634 14.7516C7.23782 14.7516 7.10065 14.7243 6.97268 14.6713C6.8447 14.6183 6.72842 14.5406 6.63047 14.4426L0.309503 8.12166C0.211395 8.0238 0.133557 7.90755 0.0804471 7.77956C0.0273374 7.65157 0 7.51436 0 7.37579C0 7.23722 0.0273374 7.10001 0.0804471 6.97202C0.133557 6.84403 0.211395 6.72778 0.309503 6.62992L6.63047 0.308951C6.82829 0.111133 7.09658 0 7.37634 0C7.6561 0 7.9244 0.111133 8.12222 0.308951C8.32003 0.506769 8.43117 0.775068 8.43117 1.05483C8.43117 1.33458 8.32003 1.60288 8.12222 1.8007L3.59851 6.3223H15.8043C16.0837 6.3223 16.3517 6.43329 16.5492 6.63086C16.7468 6.82843 16.8578 7.09639 16.8578 7.37579Z"
        fill="white"/>
</svg>
