<svg width="22" height="24" viewBox="0 0 22 24" fill="none" xmlns="http://www.w3.org/2000/svg">
  <path fill-rule="evenodd" clip-rule="evenodd"
        d="M16.3 1C16.3 0.447715 15.8523 0 15.3 0C14.7477 0 14.3 0.447715 14.3 1V2.2H7.5V1C7.5 0.447715 7.05228 0 6.5 0C5.94772 0 5.5 0.447715 5.5 1V2.2H3.2C1.43269 2.2 0 3.63269 0 5.4V9.8V20.8C0 22.5673 1.43269 24 3.2 24H18.6C20.3673 24 21.8 22.5673 21.8 20.8V9.8V5.4C21.8 3.63269 20.3673 2.2 18.6 2.2H16.3V1ZM19.8 8.8V5.4C19.8 4.73726 19.2627 4.2 18.6 4.2H16.3V5.4C16.3 5.95228 15.8523 6.4 15.3 6.4C14.7477 6.4 14.3 5.95228 14.3 5.4V4.2H7.5V5.4C7.5 5.95228 7.05228 6.4 6.5 6.4C5.94772 6.4 5.5 5.95228 5.5 5.4V4.2H3.2C2.53726 4.2 2 4.73726 2 5.4V8.8H19.8ZM2 10.8H19.8V20.8C19.8 21.4627 19.2627 22 18.6 22H3.2C2.53726 22 2 21.4627 2 20.8V10.8Z"
        fill="url(#paint0_linear_52_742)" fill-opacity="0.5"/>
  <defs>
    <linearGradient id="paint0_linear_52_742" x1="10.9" y1="0" x2="10.9" y2="24" gradientUnits="userSpaceOnUse">
      <stop stop-color="#4F98E4"/>
      <stop offset="1" stop-color="#CA29F9"/>
    </linearGradient>
  </defs>
</svg>
