<svg width="8" height="15" viewBox="0 0 8 15" fill="none" xmlns="http://www.w3.org/2000/svg">
<path d="M7.77118 8.11686L0.836914 14.8668C0.756889 14.9446 0.663241 14.9902 0.566111 14.9986C0.468981 15.007 0.372068 14.9778 0.285868 14.9144C0.199668 14.8509 0.127465 14.7554 0.0770764 14.6384C0.0266876 14.5213 3.38554e-05 14.3871 9.53674e-07 14.2503V0.750485C-6.38962e-05 0.613595 0.0265188 0.479291 0.0768685 0.362127C0.127218 0.244964 0.199414 0.149411 0.285632 0.0858242C0.37185 0.0222369 0.468801 -0.00695929 0.565978 0.00139983C0.663155 0.00975895 0.756852 0.0553545 0.836914 0.133245L7.77118 6.88313C7.84183 6.95246 7.89952 7.04474 7.93936 7.15214C7.9792 7.25954 8 7.37887 8 7.5C8 7.62113 7.9792 7.74046 7.93936 7.84786C7.89952 7.95526 7.84183 8.04754 7.77118 8.11686Z" fill="#C4C4C4"/>
</svg>
