<svg width="8" height="15" viewBox="0 0 8 15" fill="none" xmlns="http://www.w3.org/2000/svg">
<path d="M0.228819 8.11686L7.16309 14.8668C7.24311 14.9446 7.33676 14.9902 7.43389 14.9986C7.53102 15.007 7.62793 14.9778 7.71413 14.9144C7.80033 14.8509 7.87254 14.7554 7.92292 14.6384C7.97331 14.5213 7.99997 14.3871 8 14.2503V0.750485C8.00006 0.613595 7.97348 0.479291 7.92313 0.362127C7.87278 0.244964 7.80059 0.149411 7.71437 0.0858242C7.62815 0.0222369 7.5312 -0.00695929 7.43402 0.00139983C7.33684 0.00975895 7.24315 0.0553545 7.16309 0.133245L0.228819 6.88313C0.158174 6.95246 0.100479 7.04474 0.0606415 7.15214C0.0208036 7.25954 0 7.37887 0 7.5C0 7.62113 0.0208036 7.74046 0.0606415 7.84786C0.100479 7.95526 0.158174 8.04754 0.228819 8.11686Z" fill="#C4C4C4"/>
</svg>
