<svg width="20" height="20" viewBox="0 0 20 20" fill="none" xmlns="http://www.w3.org/2000/svg">
<path fill-rule="evenodd" clip-rule="evenodd" d="M2.67684 0H2.60248C2.26193 0 1.96896 1.108e-08 1.7102 0.0609724C1.30962 0.156691 0.943362 0.361442 0.652004 0.652538C0.360646 0.943633 0.155565 1.30971 0.0594852 1.7102C-5.54e-08 1.96896 0 2.26044 0 2.60248V6.32031C0 6.66087 1.108e-08 6.95383 0.0609724 7.21259C0.156691 7.61317 0.361442 7.97943 0.652538 8.27079C0.943633 8.56215 1.30971 8.76723 1.7102 8.86331C1.96896 8.92279 2.26044 8.92279 2.60248 8.92279H6.32031C6.66087 8.92279 6.95383 8.92279 7.21259 8.86182C7.61317 8.7661 7.97943 8.56135 8.27079 8.27026C8.56215 7.97916 8.76723 7.61308 8.86331 7.21259C8.92279 6.95383 8.92279 6.66235 8.92279 6.32031V2.60248C8.92279 2.26193 8.92279 1.96896 8.86182 1.7102C8.7661 1.30962 8.56135 0.943362 8.27026 0.652004C7.97916 0.360646 7.61308 0.155565 7.21259 0.0594852C6.95383 -5.54e-08 6.66235 0 6.32031 0H2.67684ZM2.0567 1.50795C2.12065 1.49308 2.22029 1.48713 2.67684 1.48713H6.24595C6.70399 1.48713 6.80214 1.49159 6.86609 1.50795C6.99968 1.5399 7.12181 1.60822 7.21893 1.70535C7.31606 1.80247 7.38438 1.9246 7.41633 2.05819C7.4312 2.12065 7.43566 2.2188 7.43566 2.67684V6.24595C7.43566 6.70399 7.4312 6.80214 7.41484 6.86609C7.3829 6.99968 7.31457 7.12181 7.21745 7.21893C7.12032 7.31606 6.99819 7.38438 6.8646 7.41633C6.80363 7.42971 6.70548 7.43566 6.24595 7.43566H2.67684C2.2188 7.43566 2.12065 7.4312 2.0567 7.41484C1.92311 7.3829 1.80099 7.31457 1.70386 7.21745C1.60674 7.12032 1.53841 6.99819 1.50646 6.8646C1.49308 6.80363 1.48713 6.70548 1.48713 6.24595V2.67684C1.48713 2.2188 1.49159 2.12065 1.50795 2.0567C1.5399 1.92311 1.60822 1.80099 1.70535 1.70386C1.80247 1.60674 1.9246 1.53841 2.05819 1.50646L2.0567 1.50795ZM13.0868 0H13.0124C12.6719 0 12.3789 1.108e-08 12.1201 0.0609724C11.7195 0.156691 11.3533 0.361442 11.0619 0.652538C10.7706 0.943633 10.5655 1.30971 10.4694 1.7102C10.4099 1.96896 10.4099 2.26044 10.4099 2.60248V6.32031C10.4099 6.66087 10.4099 6.95383 10.4709 7.21259C10.5666 7.61317 10.7714 7.97943 11.0625 8.27079C11.3536 8.56215 11.7196 8.76723 12.1201 8.86331C12.3789 8.92279 12.6704 8.92279 13.0124 8.92279H16.7302C17.0708 8.92279 17.3638 8.92279 17.6225 8.86182C18.0231 8.7661 18.3894 8.56135 18.6807 8.27026C18.9721 7.97916 19.1772 7.61308 19.2732 7.21259C19.3327 6.95383 19.3327 6.66235 19.3327 6.32031V2.60248C19.3327 2.26193 19.3327 1.96896 19.2717 1.7102C19.176 1.30962 18.9713 0.943362 18.6802 0.652004C18.3891 0.360646 18.023 0.155565 17.6225 0.0594852C17.3638 -5.54e-08 17.0723 0 16.7302 0H13.0868ZM12.4666 1.50795C12.5306 1.49308 12.6302 1.48713 13.0868 1.48713H16.6559C17.1139 1.48713 17.2121 1.49159 17.276 1.50795C17.4096 1.5399 17.5317 1.60822 17.6289 1.70535C17.726 1.80247 17.7943 1.9246 17.8263 2.05819C17.8411 2.12065 17.8456 2.2188 17.8456 2.67684V6.24595C17.8456 6.70399 17.8396 6.80214 17.8248 6.86609C17.7928 6.99968 17.7245 7.12181 17.6274 7.21893C17.5302 7.31606 17.4081 7.38438 17.2745 7.41633C17.2121 7.4312 17.1139 7.43566 16.6559 7.43566H13.0868C12.6287 7.43566 12.5306 7.4312 12.4666 7.41484C12.333 7.3829 12.2109 7.31457 12.1138 7.21745C12.0167 7.12032 11.9483 6.99819 11.9164 6.8646C11.903 6.80363 11.8971 6.70548 11.8971 6.24595V2.67684C11.8971 2.2188 11.9015 2.12065 11.9179 2.0567C11.9498 1.92311 12.0181 1.80099 12.1153 1.70386C12.2124 1.60674 12.3345 1.53841 12.4681 1.50646L12.4666 1.50795ZM2.60248 10.4099H6.32031C6.66087 10.4099 6.95383 10.4099 7.21259 10.4709C7.61317 10.5666 7.97943 10.7714 8.27079 11.0625C8.56215 11.3536 8.76723 11.7196 8.86331 12.1201C8.92279 12.3789 8.92279 12.6704 8.92279 13.0124V16.7302C8.92279 17.0708 8.92279 17.3638 8.86182 17.6225C8.7661 18.0231 8.56135 18.3894 8.27026 18.6807C7.97916 18.9721 7.61308 19.1772 7.21259 19.2732C6.95383 19.3327 6.66235 19.3327 6.32031 19.3327H2.60248C2.26193 19.3327 1.96896 19.3327 1.7102 19.2717C1.30962 19.176 0.943362 18.9713 0.652004 18.6802C0.360646 18.3891 0.155565 18.023 0.0594852 17.6225C-5.54e-08 17.3638 0 17.0723 0 16.7302V13.0124C0 12.6719 1.108e-08 12.3789 0.0609724 12.1201C0.156691 11.7195 0.361442 11.3533 0.652538 11.0619C0.943633 10.7706 1.30971 10.5655 1.7102 10.4694C1.96896 10.4099 2.26044 10.4099 2.60248 10.4099ZM2.67684 11.8971C2.2188 11.8971 2.12065 11.9015 2.0567 11.9179C1.92311 11.9498 1.80099 12.0181 1.70386 12.1153C1.60674 12.2124 1.53841 12.3345 1.50646 12.4681C1.49308 12.5291 1.48713 12.6272 1.48713 13.0868V16.6559C1.48713 17.1139 1.49159 17.2121 1.50795 17.276C1.5399 17.4096 1.60822 17.5317 1.70535 17.6289C1.80247 17.726 1.9246 17.7943 2.05819 17.8263C2.12065 17.8411 2.2188 17.8456 2.67684 17.8456H6.24595C6.70399 17.8456 6.80214 17.8396 6.86609 17.8248C6.99968 17.7928 7.12181 17.7245 7.21893 17.6274C7.31606 17.5302 7.38438 17.4081 7.41633 17.2745C7.4312 17.2121 7.43566 17.1139 7.43566 16.6559V13.0868C7.43566 12.6287 7.4312 12.5306 7.41484 12.4666C7.3829 12.333 7.31457 12.2109 7.21745 12.1138C7.12032 12.0167 6.99819 11.9483 6.8646 11.9164C6.80363 11.903 6.70548 11.8971 6.24595 11.8971H2.67684ZM13.0868 10.4099H13.0124C12.6719 10.4099 12.3789 10.4099 12.1201 10.4709C11.7195 10.5666 11.3533 10.7714 11.0619 11.0625C10.7706 11.3536 10.5655 11.7196 10.4694 12.1201C10.4099 12.3789 10.4099 12.6704 10.4099 13.0124V16.7302C10.4099 17.0708 10.4099 17.3638 10.4709 17.6225C10.5666 18.0231 10.7714 18.3894 11.0625 18.6807C11.3536 18.9721 11.7196 19.1772 12.1201 19.2732C12.3789 19.3342 12.6719 19.3342 13.0124 19.3342H16.7302C17.0708 19.3342 17.3638 19.3342 17.6225 19.2732C18.0228 19.1773 18.3888 18.9724 18.6798 18.6813C18.9709 18.3903 19.1758 18.0243 19.2717 17.624C19.3327 17.3652 19.3327 17.0723 19.3327 16.7317V13.0124C19.3327 12.6719 19.3327 12.3789 19.2717 12.1201C19.176 11.7195 18.9713 11.3533 18.6802 11.0619C18.3891 10.7706 18.023 10.5655 17.6225 10.4694C17.3638 10.4099 17.0723 10.4099 16.7302 10.4099H13.0868ZM12.4666 11.9179C12.5306 11.903 12.6302 11.8971 13.0868 11.8971H16.6559C17.1139 11.8971 17.2121 11.9015 17.276 11.9179C17.4096 11.9498 17.5317 12.0181 17.6289 12.1153C17.726 12.2124 17.7943 12.3345 17.8263 12.4681C17.8411 12.5306 17.8456 12.6287 17.8456 13.0868V16.6559C17.8456 17.1139 17.8396 17.2121 17.8248 17.276C17.7928 17.4096 17.7245 17.5317 17.6274 17.6289C17.5302 17.726 17.4081 17.7943 17.2745 17.8263C17.2121 17.8411 17.1139 17.8456 16.6559 17.8456H13.0868C12.6287 17.8456 12.5306 17.8396 12.4666 17.8248C12.333 17.7928 12.2109 17.7245 12.1138 17.6274C12.0167 17.5302 11.9483 17.4081 11.9164 17.2745C11.903 17.2136 11.8971 17.1154 11.8971 16.6559V13.0868C11.8971 12.6287 11.9015 12.5306 11.9179 12.4666C11.9498 12.333 12.0181 12.2109 12.1153 12.1138C12.2124 12.0167 12.3345 11.9483 12.4681 11.9164L12.4666 11.9179Z" fill="#747474"/>
</svg>
