<svg width="25" height="25" viewBox="0 0 45 49" fill="none" xmlns="http://www.w3.org/2000/svg">
  <path
    d="M44 23.0336L23.6706 43.9903C21.1801 46.5577 17.8022 48 14.2801 48C10.758 48 7.38016 46.5577 4.88966 43.9903C2.39915 41.423 1 37.9409 1 34.3101C1 30.6793 2.39915 27.1972 4.88966 24.6299L25.2191 3.67312C26.8794 1.96155 29.1313 1 31.4794 1C33.8275 1 36.0794 1.96155 37.7397 3.67312C39.4 5.38469 40.3328 7.70608 40.3328 10.1266C40.3328 12.5471 39.4 14.8685 37.7397 16.5801L17.3882 37.5368C16.558 38.3926 15.432 38.8734 14.258 38.8734C13.084 38.8734 11.958 38.3926 11.1278 37.5368C10.2977 36.681 9.83129 35.5203 9.83129 34.3101C9.83129 33.0998 10.2977 31.9391 11.1278 31.0833L29.9088 11.7457"
    stroke="url(#paint0_linear_52_780)" stroke-opacity="0.8" stroke-width="2" stroke-linecap="round" stroke-linejoin="round"/>
  <defs>
    <linearGradient id="paint0_linear_52_780" x1="22.5" y1="1" x2="22.5" y2="48" gradientUnits="userSpaceOnUse">
      <stop stop-color="#4F98E4"/>
      <stop offset="1" stop-color="#CA29F9"/>
    </linearGradient>
  </defs>
</svg>
