<svg width="62" height="62" viewBox="0 0 62 62" fill="none" xmlns="http://www.w3.org/2000/svg">
  <circle cx="31" cy="31" r="31" fill="url(#paint0_linear_52_208)" fill-opacity="0.08"/>
  <path
    d="M21.6919 34.6936L20.5769 38.9747L16.5014 39.0633C15.2835 36.74 14.5927 34.0819 14.5927 31.2571C14.5927 28.5256 15.2386 25.9497 16.3835 23.6816H16.3844L20.0126 24.3658L21.602 28.0749C21.2694 29.0723 21.0881 30.143 21.0881 31.2571C21.0882 32.4663 21.3012 33.6248 21.6919 34.6936Z"
    fill="#FBBB00"/>
  <path
    d="M46.9617 28.1777C47.1507 29.1699 47.2492 30.1946 47.2492 31.2418C47.2492 32.4161 47.1253 33.5616 46.8894 34.6665C46.0885 38.4263 43.9956 41.7094 41.0964 44.0327L41.0955 44.0318L36.4009 43.793L35.7365 39.6582C37.6603 38.5335 39.1637 36.7735 39.9556 34.6665H31.1576V28.1777H40.084H46.9617Z"
    fill="#518EF8"/>
  <path
    d="M41.0955 43.9603L41.0964 43.9612C38.2975 46.2267 34.742 47.5822 30.8716 47.5822C24.6519 47.5822 19.2443 44.0814 16.4857 38.9297L21.7785 34.5669C23.1577 38.2736 26.7087 40.9123 30.8716 40.9123C32.661 40.9123 34.3374 40.4252 35.7758 39.5749L41.0955 43.9603Z"
    fill="#28B446"/>
  <path
    d="M41.333 18.6396L36.0598 22.918C34.5761 21.9989 32.8222 21.4679 30.9432 21.4679C26.7003 21.4679 23.0951 24.1749 21.7893 27.941L16.4866 23.6387H16.4857C19.1948 18.4623 24.6522 14.9258 30.9432 14.9258C34.8927 14.9258 38.514 16.32 41.333 18.6396Z"
    fill="#F14336"/>
  <defs>
    <linearGradient id="paint0_linear_52_208" x1="31" y1="13.2857" x2="31" y2="62" gradientUnits="userSpaceOnUse">
      <stop stop-color="#4F98E4"/>
      <stop offset="1" stop-color="#CA29F9"/>
    </linearGradient>
  </defs>
</svg>
