<svg width="592" height="455" viewBox="0 0 592 455" fill="none" xmlns="http://www.w3.org/2000/svg">
<path d="M328.774 368.252C331.458 369.434 338.043 369.28 338.043 369.28C338.043 369.28 336.636 364.977 336.506 364.717C335.064 361.703 330.5 356.714 326.788 357.223C326.175 357.324 325.59 357.554 325.072 357.896C324.553 358.239 324.112 358.687 323.778 359.211C323.443 359.735 323.223 360.323 323.13 360.938C323.038 361.552 323.076 362.18 323.242 362.779C323.845 365.344 326.481 367.259 328.774 368.252Z" fill="#263238"/>
<path d="M331.044 387.296C333.834 387.71 339.698 386.008 340.17 385.866C341.128 389.225 342.313 392.515 343.717 395.713C344.521 397.581 345.396 399.449 346.294 401.293L345.195 399.721C343.008 397.191 337.286 393.597 333.834 395.051C333.269 395.312 332.766 395.688 332.355 396.156C331.945 396.623 331.637 397.172 331.452 397.766C331.268 398.359 331.209 398.986 331.281 399.603C331.354 400.221 331.555 400.817 331.872 401.352C333.148 403.716 336.198 404.816 338.669 405.182C341.14 405.549 346.211 404.189 347.535 403.823C347.89 404.52 348.233 405.23 348.587 405.939C350.29 409.32 351.992 412.689 353.576 416.046C354.132 417.228 354.628 418.411 355.148 419.593C354.664 418.895 354.262 418.304 354.191 418.221C352.004 415.692 346.282 412.098 342.83 413.564C342.266 413.823 341.762 414.198 341.352 414.665C340.942 415.131 340.634 415.679 340.449 416.271C340.264 416.864 340.206 417.49 340.278 418.107C340.35 418.724 340.551 419.318 340.868 419.853C342.145 422.217 345.195 423.316 347.665 423.683C350.136 424.049 354.758 422.82 356.295 422.383C356.78 423.565 357.264 424.841 357.678 426.059C357.95 426.887 358.257 427.679 358.482 428.53C358.707 429.381 358.943 430.197 359.168 431.024C359.558 432.62 359.96 434.263 360.35 435.835C360.586 436.935 360.799 437.975 361.012 439.027C360.468 437.845 359.369 435.552 359.25 435.363C357.477 432.537 352.37 428.104 348.741 429.038C348.142 429.205 347.586 429.497 347.108 429.895C346.63 430.292 346.242 430.786 345.968 431.344C345.695 431.903 345.543 432.512 345.521 433.133C345.5 433.755 345.61 434.373 345.845 434.949C346.743 437.431 349.592 439.027 351.98 439.76C354.604 440.564 360.432 439.831 361.165 439.76C361.508 441.498 361.827 443.188 362.111 444.796C362.738 448.343 363.211 451.511 363.565 454.253H366.024C365.598 451.463 365.031 448.153 364.298 444.43C363.943 442.668 363.542 440.789 363.116 438.85C364.869 438.168 366.579 437.378 368.235 436.486C370.162 438.554 375.067 440.99 375.706 441.297C375.032 442.94 374.37 444.536 373.72 446.026C372.36 449.158 371.072 451.936 369.925 454.301H372.585C373.566 452.125 374.642 449.643 375.765 446.9C376.451 445.234 377.148 443.437 377.846 441.592C378.555 441.734 384.324 442.905 387.007 442.302C389.442 441.746 392.398 440.375 393.485 437.963C393.761 437.406 393.915 436.796 393.94 436.175C393.964 435.553 393.858 434.934 393.627 434.356C393.396 433.779 393.046 433.256 392.6 432.823C392.154 432.389 391.622 432.054 391.038 431.84C387.492 430.658 382.066 434.677 380.08 437.372C379.962 437.526 378.898 439.394 378.224 440.576C378.508 439.819 378.791 439.086 379.075 438.306C379.642 436.758 380.163 435.209 380.718 433.578L381.463 431.095C381.735 430.279 381.912 429.369 382.137 428.506C382.621 426.473 383.012 424.392 383.319 422.3C384.667 422.784 389.502 424.475 392.008 424.298C394.514 424.12 397.623 423.198 399.101 420.988C399.458 420.478 399.705 419.899 399.824 419.287C399.943 418.676 399.932 418.046 399.791 417.44C399.651 416.833 399.384 416.263 399.008 415.766C398.633 415.269 398.157 414.857 397.611 414.557C394.289 412.843 388.319 416.011 385.943 418.363C385.801 418.517 384.288 420.397 383.484 421.449C383.674 420.184 383.886 418.919 384.04 417.63C384.501 413.918 384.856 410.147 385.222 406.388C385.329 405.206 385.459 404.024 385.577 402.936C386.061 403.114 391.759 405.241 394.561 405.04C397.055 404.863 400.188 403.953 401.654 401.73C402.01 401.221 402.255 400.643 402.373 400.033C402.491 399.423 402.479 398.795 402.338 398.189C402.198 397.584 401.932 397.015 401.557 396.519C401.183 396.023 400.708 395.612 400.165 395.311C396.831 393.585 390.861 396.754 388.497 399.118C388.308 399.295 386.132 402.002 385.624 402.723C385.896 400.194 386.18 397.676 386.57 395.205C387.074 391.864 387.793 388.559 388.721 385.31C388.946 385.393 394.892 387.675 397.765 387.438C400.259 387.261 403.38 386.339 404.858 384.128C405.216 383.619 405.462 383.039 405.581 382.428C405.7 381.817 405.689 381.187 405.548 380.58C405.408 379.974 405.141 379.403 404.765 378.906C404.39 378.41 403.914 377.998 403.368 377.697C400.046 375.983 394.076 379.151 391.7 381.504C391.511 381.693 389.182 384.613 388.792 385.18C388.851 384.991 388.887 384.79 388.946 384.601C389.97 381.368 391.283 378.235 392.871 375.238C393.722 373.572 394.62 372.023 395.542 370.51C396.606 371.042 401.453 373.406 404.101 373.513C406.749 373.619 409.799 373.052 411.478 371.006C411.889 370.54 412.197 369.992 412.382 369.398C412.567 368.804 412.626 368.178 412.553 367.561C412.481 366.943 412.279 366.347 411.961 365.813C411.644 365.278 411.217 364.816 410.709 364.457C407.588 362.377 401.252 364.871 398.687 366.952C398.545 367.07 397.233 368.382 396.323 369.316C396.736 368.654 397.162 367.956 397.587 367.33C399.148 364.966 400.732 362.909 402.151 361.088C402.954 360.06 403.711 359.149 404.432 358.31C405.744 358.31 411.052 358.121 413.369 357.033C415.686 355.946 418.216 353.995 418.76 351.406C418.91 350.802 418.931 350.172 418.821 349.559C418.712 348.945 418.474 348.362 418.124 347.846C417.773 347.331 417.318 346.895 416.788 346.568C416.258 346.24 415.665 346.028 415.048 345.945C411.324 345.543 406.903 350.673 405.591 353.7C405.472 353.972 404.101 358.31 404.172 358.31H404.255C403.545 359.114 402.801 359.977 402.009 360.934C400.543 362.731 398.923 364.765 397.28 367.093C395.499 369.591 393.869 372.192 392.398 374.884C390.728 377.881 389.331 381.023 388.225 384.27V384.388C388.225 383.301 388.225 380.227 388.166 379.991C387.74 376.669 384.962 370.534 381.274 369.836C380.658 369.739 380.029 369.773 379.427 369.935C378.826 370.098 378.265 370.385 377.782 370.779C377.299 371.173 376.905 371.664 376.624 372.221C376.344 372.777 376.184 373.387 376.155 374.009C375.942 376.645 377.857 379.281 379.702 380.936C381.806 382.816 387.646 384.637 388.107 384.778C387.059 388.113 386.233 391.513 385.636 394.957C385.281 396.966 384.986 398.988 384.714 401.033C384.714 400.075 384.714 399.236 384.714 399.118C384.276 395.796 381.498 389.661 377.822 388.963C377.207 388.866 376.579 388.9 375.978 389.062C375.377 389.223 374.817 389.51 374.335 389.902C373.852 390.295 373.457 390.785 373.176 391.34C372.895 391.895 372.734 392.503 372.703 393.124C372.49 395.761 374.394 398.397 376.25 400.064C378.106 401.73 383.082 403.409 384.395 403.823C384.3 404.603 384.194 405.383 384.099 406.187C383.65 409.946 383.224 413.694 382.681 417.37C382.491 418.659 382.267 419.924 382.03 421.189C382.03 420.349 382.03 419.64 382.03 419.534C381.605 416.212 378.827 410.076 375.138 409.379C374.524 409.282 373.897 409.315 373.297 409.477C372.696 409.639 372.137 409.926 371.655 410.318C371.173 410.711 370.78 411.201 370.5 411.756C370.22 412.311 370.06 412.919 370.032 413.54C369.807 416.176 371.722 418.824 373.578 420.479C375.434 422.134 379.926 423.659 381.487 424.168C381.215 425.456 380.943 426.745 380.624 427.986C380.375 428.825 380.21 429.653 379.914 430.492C379.619 431.331 379.382 432.135 379.122 432.951C378.555 434.5 377.94 436.095 377.408 437.597C377.006 438.637 376.604 439.618 376.226 440.611C376.427 439.335 376.77 436.805 376.782 436.592C376.721 433.646 375.907 430.764 374.417 428.222C374.427 427.894 374.408 427.566 374.358 427.241C374.28 426.625 374.074 426.031 373.751 425.5C373.429 424.968 372.999 424.51 372.488 424.156C371.978 423.801 371.398 423.558 370.788 423.442C370.177 423.326 369.549 423.339 368.944 423.482C365.315 424.44 363.033 430.799 362.856 434.121C362.856 434.322 362.974 436.486 363.069 437.821C362.891 437.041 362.726 436.273 362.525 435.457C362.147 433.849 361.721 432.265 361.272 430.551L360.515 428.081C360.291 427.253 359.936 426.402 359.64 425.551C358.931 423.588 358.104 421.638 357.276 419.699C358.671 419.356 363.636 418.091 365.622 416.566C367.608 415.041 369.712 412.559 369.689 409.911C369.704 409.289 369.588 408.671 369.35 408.097C369.111 407.523 368.755 407.005 368.303 406.577C367.852 406.15 367.316 405.821 366.73 405.614C366.144 405.406 365.521 405.323 364.901 405.371C361.177 405.785 357.95 411.708 357.264 414.994C357.264 415.195 357.004 417.595 356.91 418.919C356.378 417.737 355.858 416.555 355.278 415.432C353.611 412.074 351.826 408.741 350.053 405.395L348.445 402.322C348.942 402.203 354.876 400.832 357.099 399.118C359.085 397.605 361.189 395.11 361.165 392.462C361.182 391.84 361.068 391.222 360.83 390.646C360.592 390.071 360.236 389.553 359.784 389.125C359.332 388.697 358.796 388.368 358.209 388.161C357.622 387.954 356.998 387.873 356.378 387.923C352.654 388.337 349.427 394.259 348.753 397.546C348.694 397.794 348.386 401.246 348.351 402.132C347.169 399.874 345.987 397.617 344.994 395.335C343.57 392.265 342.346 389.106 341.329 385.878C341.565 385.878 347.76 384.412 350.041 382.662C352.027 381.137 354.12 378.655 354.108 376.007C354.124 375.39 354.011 374.777 353.777 374.206C353.543 373.635 353.192 373.12 352.746 372.693C352.301 372.265 351.772 371.936 351.192 371.725C350.612 371.514 349.995 371.426 349.379 371.467C345.656 371.869 342.417 377.804 341.743 381.078C341.743 381.338 341.353 385.062 341.341 385.807C341.341 385.618 341.211 385.429 341.152 385.239C340.23 381.979 339.597 378.645 339.26 375.274C339.047 373.406 338.953 371.621 338.894 369.872C340.076 369.73 345.466 369.009 347.689 367.661C349.911 366.313 352.193 364.114 352.417 361.502C352.502 360.885 352.457 360.258 352.283 359.66C352.11 359.062 351.814 358.507 351.412 358.031C351.011 357.556 350.515 357.169 349.955 356.898C349.395 356.626 348.784 356.475 348.162 356.454C344.414 356.454 340.549 361.998 339.52 365.178C339.461 365.356 339.083 367.176 338.835 368.5C338.835 367.72 338.835 366.904 338.835 366.136C338.835 363.311 339.012 360.71 339.189 358.417C339.307 357.116 339.426 355.934 339.556 354.87C340.643 354.125 344.97 351.064 346.306 348.877C347.642 346.69 348.67 343.663 347.701 341.204C347.494 340.617 347.165 340.081 346.736 339.629C346.307 339.178 345.788 338.823 345.212 338.586C344.636 338.35 344.017 338.237 343.394 338.257C342.772 338.276 342.161 338.426 341.601 338.698C338.267 340.424 337.392 347.115 337.948 350.413C337.948 350.697 339.248 355.071 339.307 355.036H339.378C339.225 356.099 339.083 357.234 338.953 358.476C338.716 360.769 338.48 363.37 338.421 366.207C338.319 369.27 338.39 372.337 338.634 375.392C338.906 378.816 339.475 382.21 340.336 385.535C340.341 385.574 340.341 385.614 340.336 385.653C339.757 384.731 337.972 382.19 337.865 382.012C335.678 379.482 329.957 375.877 326.505 377.343C325.94 377.603 325.436 377.98 325.026 378.447C324.616 378.915 324.308 379.463 324.123 380.057C323.938 380.651 323.88 381.277 323.952 381.895C324.024 382.513 324.225 383.108 324.542 383.644C325.5 385.795 328.574 386.942 331.044 387.296Z" fill="#263238"/>
<path d="M395.247 369.706C395.306 369.706 396.429 365.332 396.488 365.048C396.949 361.738 395.885 355.059 392.516 353.428C391.948 353.173 391.334 353.041 390.712 353.04C390.09 353.038 389.475 353.168 388.906 353.42C388.337 353.672 387.828 354.041 387.411 354.502C386.995 354.964 386.68 355.508 386.487 356.099C385.577 358.582 386.723 361.632 388.083 363.736C389.714 366.195 395.247 369.694 395.247 369.706Z" fill="#263238"/>
<path d="M525.535 109.279C552.579 103.015 569.426 76.0135 563.162 48.9688C556.899 21.9241 529.897 5.07771 502.852 11.3414C475.807 17.605 458.961 44.6068 465.225 71.6515C471.488 98.6962 498.49 115.543 525.535 109.279Z" stroke="#263238" stroke-miterlimit="10"/>
<path d="M524.724 105.68C549.795 99.8643 565.405 74.8257 559.589 49.7548C553.773 24.6838 528.734 9.0744 503.663 14.8901C478.593 20.7059 462.983 45.7445 468.799 70.8154C474.615 95.8864 499.653 111.496 524.724 105.68Z" stroke="#263238" stroke-miterlimit="10"/>
<path d="M514.195 62.9147C515.637 62.9147 516.807 61.745 516.807 60.3021C516.807 58.8593 515.637 57.6896 514.195 57.6896C512.752 57.6896 511.582 58.8593 511.582 60.3021C511.582 61.745 512.752 62.9147 514.195 62.9147Z" fill="#263238"/>
<path d="M490.622 60.3021H514.194V31.5049" stroke="#263238" stroke-linecap="round" stroke-linejoin="round"/>
<path d="M12.9397 439.748C12.9397 439.748 22.3969 391.8 22.3969 388.017C22.055 376.37 20.7861 364.768 18.6022 353.321C15.4577 336.287 5.98869 294.013 3.47071 287.121C0.952731 280.229 10.4099 267.568 12.9279 253.063C15.4459 238.558 21.132 224.692 28.6978 215.837C36.2635 206.983 63.3938 187.466 63.3938 187.466H77.2486C77.2486 187.466 72.2009 270.736 79.1401 283.35C86.0793 295.964 98.7046 322.467 99.9695 333.816C101.234 345.165 93.6923 364.02 94.9809 374.73C96.2694 385.44 85.5237 403.102 82.9939 410.691C80.4641 418.281 81.729 442.231 81.729 442.231" fill="white"/>
<path d="M12.9397 439.748C12.9397 439.748 22.3969 391.8 22.3969 388.017C22.055 376.37 20.7861 364.768 18.6022 353.321C15.4577 336.287 5.98869 294.013 3.47071 287.121C0.952731 280.229 10.4099 267.568 12.9279 253.063C15.4459 238.558 21.132 224.692 28.6978 215.837C36.2635 206.983 63.3938 187.466 63.3938 187.466H77.2486C77.2486 187.466 72.2009 270.736 79.1401 283.35C86.0793 295.964 98.7046 322.467 99.9695 333.816C101.234 345.165 93.6923 364.02 94.9809 374.73C96.2694 385.44 85.5237 403.102 82.9939 410.691C80.4641 418.281 81.729 442.231 81.729 442.231" stroke="#263238" stroke-linecap="round" stroke-linejoin="round"/>
<path d="M62.1526 210.719L52.0571 222.446C52.0571 222.446 49.5273 235.958 48.2742 242.259C47.4653 246.183 46.1914 249.996 44.4795 253.619C44.4795 253.619 48.9007 263.715 51.4187 267.497C52.9797 269.86 54.2536 272.399 55.2134 275.063L62.1526 279.484V210.719V210.719Z" fill="#263238" stroke="#263238" stroke-linecap="round" stroke-linejoin="round"/>
<path d="M27.3028 255.215C30.681 254.759 34.0843 254.514 37.4929 254.482" stroke="#263238" stroke-linecap="round" stroke-linejoin="round"/>
<path d="M44.775 217.351C44.775 217.351 52.0571 219.538 52.0571 222.446" stroke="#263238" stroke-linecap="round" stroke-linejoin="round"/>
<path d="M1 447.893C1 447.893 4.15634 417.95 4.15634 414.793V405.336C4.15634 402.191 7.30085 399.827 7.30085 399.827C7.30085 399.827 38.0367 393.514 68.7726 403.764C99.5085 414.013 92.4156 430.563 92.4156 430.563L90.8433 454.206" fill="white"/>
<path d="M1 447.893C1 447.893 4.15634 417.95 4.15634 414.793V405.336C4.15634 402.191 7.30085 399.827 7.30085 399.827C7.30085 399.827 38.0367 393.514 68.7726 403.764C99.5085 414.013 92.4156 430.563 92.4156 430.563L90.8433 454.206" stroke="#263238" stroke-linecap="round" stroke-linejoin="round"/>
<path d="M437.532 93.3787H70.333C64.0719 93.3787 58.9962 98.4543 58.9962 104.715V323.035C58.9962 329.296 64.0719 334.372 70.333 334.372H437.532C443.793 334.372 448.869 329.296 448.869 323.035V104.715C448.869 98.4543 443.793 93.3787 437.532 93.3787Z" fill="#263238" stroke="#263238" stroke-linecap="round" stroke-linejoin="round"/>
<path d="M423.902 106.631H83.9514C77.6903 106.631 72.6146 111.706 72.6146 117.967V309.783C72.6146 316.044 77.6903 321.12 83.9514 321.12H423.902C430.163 321.12 435.239 316.044 435.239 309.783V117.967C435.239 111.706 430.163 106.631 423.902 106.631Z" fill="white" stroke="#263238" stroke-linecap="round" stroke-linejoin="round"/>
<path d="M408.451 115.319H311.645V177.276H408.451V115.319Z" fill="white" stroke="#263238" stroke-linecap="round" stroke-linejoin="round"/>
<path d="M408.451 170.372H311.645V177.276H408.451V170.372Z" fill="#263238" stroke="#263238" stroke-linecap="round" stroke-linejoin="round"/>
<path d="M408.451 172.819H311.645V174.829H408.451V172.819Z" fill="white" stroke="#263238" stroke-linecap="round" stroke-linejoin="round"/>
<path d="M359.567 160.189C367.413 159.527 373.237 152.631 372.576 144.785C371.914 136.939 365.018 131.115 357.172 131.776C349.326 132.438 343.502 139.335 344.163 147.18C344.825 155.026 351.722 160.85 359.567 160.189Z" fill="#4F98E4"/>
<path d="M366.627 146.303L354.226 139.151V153.467L366.627 146.303Z" fill="white"/>
<path d="M408.451 183.967H311.645V245.923H408.451V183.967Z" fill="white" stroke="#263238" stroke-linecap="round" stroke-linejoin="round"/>
<path d="M408.451 239.019H311.645V245.923H408.451V239.019Z" fill="#263238" stroke="#263238" stroke-linecap="round" stroke-linejoin="round"/>
<path d="M408.451 241.466H311.645V243.476H408.451V241.466Z" fill="white" stroke="#263238" stroke-linecap="round" stroke-linejoin="round"/>
<path d="M359.567 228.842C367.413 228.18 373.237 221.283 372.575 213.438C371.914 205.592 365.017 199.768 357.171 200.429C349.325 201.091 343.501 207.987 344.163 215.833C344.824 223.679 351.721 229.503 359.567 228.842Z" fill="#4F98E4"/>
<path d="M366.627 214.951L354.226 207.787V222.115L366.627 214.951Z" fill="white"/>
<path d="M408.451 252.614H311.645V314.571H408.451V252.614Z" fill="white" stroke="#263238" stroke-linecap="round" stroke-linejoin="round"/>
<path d="M408.451 307.667H311.645V314.571H408.451V307.667Z" fill="#263238" stroke="#263238" stroke-linecap="round" stroke-linejoin="round"/>
<path d="M408.451 310.102H311.645V312.112H408.451V310.102Z" fill="white" stroke="#263238" stroke-linecap="round" stroke-linejoin="round"/>
<path d="M373.515 287.12C374.539 279.325 369.05 272.176 361.254 271.152C353.459 270.129 346.311 275.618 345.287 283.413C344.263 291.208 349.753 298.357 357.548 299.381C365.343 300.404 372.492 294.915 373.515 287.12Z" fill="#4F98E4"/>
<path d="M366.627 283.598L354.226 276.434V290.75L366.627 283.598Z" fill="white"/>
<path d="M278.651 135.971H113.789C110.002 135.971 106.932 139.041 106.932 142.828V310.61C106.932 314.397 110.002 317.467 113.789 317.467H278.651C282.438 317.467 285.508 314.397 285.508 310.61V142.828C285.508 139.041 282.438 135.971 278.651 135.971Z" fill="url(#paint0_linear_8:7)" fill-opacity="0.3"/>
<path d="M41.9851 299.735C41.9851 299.735 53.3101 275.063 54.575 265.606C55.8399 256.149 53.3101 234.066 56.4664 225.236C59.6228 216.405 57.7313 205.044 65.2971 200.623C72.8628 196.202 83.0293 197.479 84.8617 215.14C86.694 232.801 84.8617 260.558 85.4882 270.027C86.1147 279.496 102.523 293.363 103.15 313.554C103.776 333.745 96.8486 354.551 94.9809 363.393C93.1131 372.236 85.5237 393.042 85.5237 393.042" fill="white"/>
<path d="M41.9851 299.735C41.9851 299.735 53.3101 275.063 54.575 265.606C55.8399 256.149 53.3101 234.066 56.4664 225.236C59.6228 216.405 57.7313 205.044 65.2971 200.623C72.8628 196.202 83.0293 197.479 84.8617 215.14C86.694 232.801 84.8617 260.558 85.4882 270.027C86.1147 279.496 102.523 293.363 103.15 313.554C103.776 333.745 96.8486 354.551 94.9809 363.393C93.1131 372.236 85.5237 393.042 85.5237 393.042" stroke="#263238" stroke-linecap="round" stroke-linejoin="round"/>
<path d="M59.5873 221.051C63.3234 220.141 67.2141 220.064 70.9832 220.826C74.3928 221.481 77.7633 222.325 81.0787 223.356C81.4432 219.155 81.4432 214.931 81.0787 210.731C81.0787 210.731 81.9062 203.531 77.5323 200.611C73.1583 197.692 64.4223 198.436 61.5142 204.985C58.6061 211.534 59.5873 221.051 59.5873 221.051Z" stroke="#263238" stroke-linecap="round" stroke-linejoin="round"/>
<path d="M75.3572 232.636C75.3572 232.636 60.7931 228.274 57.1521 234.054" stroke="#263238" stroke-linecap="round" stroke-linejoin="round"/>
<path d="M60.7931 236.277C60.7931 236.277 65.167 237.731 74.6242 237.01" stroke="#263238" stroke-linecap="round" stroke-linejoin="round"/>
<path d="M440.665 130.025C440.665 130.025 424.257 135.073 425.521 139.482C426.786 143.892 457.061 181.744 462.109 180.491C467.157 179.238 472.831 162.759 472.831 151.469C472.831 140.18 440.665 130.025 440.665 130.025Z" fill="#263238" stroke="#263238" stroke-linecap="round" stroke-linejoin="round"/>
<path d="M574.732 241.419L559.258 222.706C559.258 222.706 539.079 175.42 533.393 165.963C527.707 156.505 515.105 129.375 510.684 128.134C506.262 126.893 499.962 126.242 498.07 124.989C496.179 123.736 488.613 121.195 478.517 120.568C468.422 119.942 447.604 115.52 438.774 113.002C429.943 110.484 429.316 113.002 418.582 116.785C407.848 120.568 375.682 131.929 373.164 133.82C370.646 135.711 373.791 141.386 381.995 144.542C390.199 147.698 393.982 145.169 403.439 143.916C412.896 142.662 427.413 140.121 429.305 140.121C431.196 140.121 445.074 142.012 447.604 143.277C450.134 144.542 456.435 154.638 456.435 159.685C456.348 163.291 455.924 166.881 455.17 170.407L454.91 214.147C454.91 214.147 474.888 236.691 488.719 244.375C502.55 252.059 509.206 252.567 509.206 252.567L530.721 272.545" fill="white"/>
<path d="M574.732 241.419L559.258 222.706C559.258 222.706 539.079 175.42 533.393 165.963C527.707 156.505 515.105 129.375 510.684 128.134C506.262 126.893 499.962 126.242 498.07 124.989C496.179 123.736 488.613 121.195 478.517 120.568C468.422 119.942 447.604 115.52 438.774 113.002C429.943 110.484 429.316 113.002 418.582 116.785C407.848 120.568 375.682 131.929 373.164 133.82C370.646 135.711 373.791 141.386 381.995 144.542C390.199 147.698 393.982 145.169 403.439 143.916C412.896 142.662 427.413 140.121 429.305 140.121C431.196 140.121 445.074 142.012 447.604 143.277C450.134 144.542 456.435 154.638 456.435 159.685C456.348 163.291 455.924 166.881 455.17 170.407L454.91 214.147C454.91 214.147 474.888 236.691 488.719 244.375C502.55 252.059 509.206 252.567 509.206 252.567L530.721 272.545" stroke="#263238" stroke-linecap="round" stroke-linejoin="round"/>
<path d="M498.094 124.93C502.19 129.225 505.589 134.135 508.166 139.482Z" fill="white"/>
<path d="M498.094 124.93C502.19 129.225 505.589 134.135 508.166 139.482" stroke="#263238" stroke-linecap="round" stroke-linejoin="round"/>
<path d="M557.402 312.738L509.43 258.667C509.43 258.667 487.348 249.21 472.784 239.752C458.22 230.295 440.618 200.008 436.196 193.069C431.775 186.13 422.318 172.252 414.752 167.204C407.186 162.156 393.296 146.386 390.14 140.014C386.983 133.643 392.67 125.509 399.597 124.883C406.524 124.256 435.558 138.123 440.606 145.701C445.653 153.278 460.265 169.036 460.265 169.036" fill="white"/>
<path d="M557.402 312.738L509.43 258.667C509.43 258.667 487.348 249.21 472.784 239.752C458.22 230.295 440.618 200.008 436.196 193.069C431.775 186.13 422.318 172.252 414.752 167.204C407.186 162.156 393.296 146.386 390.14 140.014C386.983 133.643 392.67 125.509 399.597 124.883C406.524 124.256 435.558 138.123 440.606 145.701C445.653 153.278 460.265 169.036 460.265 169.036" stroke="#263238" stroke-linecap="round" stroke-linejoin="round"/>
<path d="M424.895 147.001C424.895 147.001 417.317 154.579 416.691 158.361" stroke="#263238" stroke-linecap="round" stroke-linejoin="round"/>
<path d="M430.569 147.639C430.569 147.639 424.895 156.47 421.112 159.626" stroke="#263238" stroke-linecap="round" stroke-linejoin="round"/>
<path d="M418.582 135.014C410.378 140.665 404.704 151.422 404.704 151.422C404.704 151.422 391.216 146.516 390.187 140.062C389.159 133.607 391.216 127.153 399.644 124.93C408.073 122.708 418.582 135.014 418.582 135.014Z" stroke="#263238" stroke-linecap="round" stroke-linejoin="round"/>
<path d="M573.952 350.567C571.588 346.63 518.781 284.757 516.417 276.884C514.053 269.011 523.51 250.876 538.488 234.326C546.396 225.59 566.091 211.357 577.144 222.966C581.695 227.694 585.549 233.546 590.502 238.275" fill="white"/>
<path d="M573.952 350.567C571.588 346.63 518.781 284.757 516.417 276.884C514.053 269.011 523.51 250.876 538.488 234.326C546.396 225.59 566.091 211.357 577.144 222.966C581.695 227.694 585.549 233.546 590.502 238.275" stroke="#263238" stroke-linecap="round" stroke-linejoin="round"/>
<path d="M240.905 320.848L243.057 287.133C243.716 289.845 244.565 292.508 245.599 295.101C246.686 297.276 268.78 287.133 268.78 287.133C268.78 287.133 262.976 248.016 259.323 233.877C255.67 219.739 254.595 201.273 251.356 200.198C248.116 199.122 207.19 179.912 206.103 179.912C205.015 179.912 182.921 182.04 182.921 182.04L147.055 203.78L152.433 320.812L240.905 320.848Z" fill="white" stroke="#263238" stroke-linecap="round" stroke-linejoin="round"/>
<path d="M212.486 230.295C212.486 231.477 212.38 232.659 212.286 233.771" stroke="#263238" stroke-linecap="round" stroke-linejoin="round"/>
<path d="M210.311 199.098C211.577 207.714 212.32 216.399 212.534 225.106" stroke="#263238" stroke-linecap="round" stroke-linejoin="round"/>
<path d="M238.967 227.292L239.073 221.559" stroke="#263238" stroke-linecap="round" stroke-linejoin="round"/>
<path d="M237.891 284.993L238.896 231.56" stroke="#263238" stroke-linecap="round" stroke-linejoin="round"/>
<path d="M273.225 320.848L270.601 298.789L245.776 303.517L254.264 320.848H273.225Z" fill="white" stroke="#263238" stroke-linecap="round" stroke-linejoin="round"/>
<path d="M241.839 293.268C246.179 291.31 250.388 289.075 254.441 286.577C261.534 282.239 268.237 281.057 270.211 284.603C272.185 288.15 276.512 297.997 274.939 299.581C273.367 301.165 250.114 308.636 247.75 308.636C245.386 308.636 241.059 300.704 241.059 300.704C240.62 298.201 240.891 295.625 241.839 293.268V293.268Z" fill="white" stroke="#263238" stroke-linecap="round" stroke-linejoin="round"/>
<path d="M187.271 171.578C185.251 173.166 183.426 174.987 181.833 177.004C180.508 179.519 179.533 182.204 178.937 184.983L194.518 206.711L204.294 191.497L207.923 189.322L223.492 199.831C223.492 199.831 218.066 180.988 212.262 175.195C206.458 169.403 190.534 170.124 187.271 171.578Z" fill="white" stroke="#263238" stroke-linecap="round" stroke-linejoin="round"/>
<path d="M206.458 96.1685C206.458 96.1685 214.662 102.741 215.489 106.43C216.317 110.118 214.047 118.251 214.047 118.251L203.171 97.0433L206.458 96.1685Z" fill="#263238" stroke="#263238" stroke-linecap="round" stroke-linejoin="round"/>
<path d="M203.94 92.9649C203.94 92.9649 218.787 125.202 220.963 136.078C223.138 146.954 222.05 157.085 218.066 164.686C214.082 172.287 209.732 171.211 209.732 171.211V195.847C209.732 195.847 190.534 180.633 189.446 178.824C188.359 177.016 186.55 173.753 186.55 173.753C186.55 173.753 184.375 157.806 177.495 153.101C177.495 153.101 168.428 154.543 166.265 146.221C164.101 137.898 165.898 134.99 171.691 134.257C171.691 134.257 166.962 122.306 165.898 114.338C164.834 106.37 178.216 103.829 186.184 98.7574C194.151 93.686 203.94 92.9649 203.94 92.9649Z" fill="white" stroke="#263238" stroke-linecap="round" stroke-linejoin="round"/>
<path d="M209.732 171.211L202.734 168.492L209.318 180.68L209.732 171.211Z" fill="#263238" stroke="#263238" stroke-linecap="round" stroke-linejoin="round"/>
<path d="M170.969 136.799C170.969 136.799 166.241 134.99 161.193 128.524C156.145 122.058 154.668 116.939 161.548 106.063C168.428 95.1873 193.099 84.9972 199.944 86.0848C206.789 87.1724 211.174 95.8611 202.852 101.299C197.138 104.803 190.9 107.369 184.375 108.9C184.375 108.9 188.359 105.649 184.009 104.916C179.658 104.183 171.005 108.546 171.691 112.163C172.376 115.78 177.85 114.705 177.495 120.438C177.14 126.171 172.057 132.39 173.866 134.624C175.674 136.858 180.025 138.608 176.407 139.695C172.79 140.783 170.969 136.799 170.969 136.799Z" fill="#263238" stroke="#263238" stroke-linecap="round" stroke-linejoin="round"/>
<path d="M196.327 142.592L190.889 146.942" stroke="#263238" stroke-linecap="round" stroke-linejoin="round"/>
<path d="M193.797 145.488C193.797 145.488 200.677 152.013 212.628 146.575" stroke="#263238" stroke-linecap="round" stroke-linejoin="round"/>
<path d="M196.326 147.663C197.148 149.191 198.282 150.529 199.655 151.59C201.028 152.651 202.608 153.412 204.294 153.822C210.087 155.276 207.19 148.751 207.19 148.751C207.19 148.751 199.223 148.751 196.326 147.663Z" fill="#263238" stroke="#263238" stroke-linecap="round" stroke-linejoin="round"/>
<path d="M190.097 125.84C190.664 127.555 190.499 129.139 189.742 129.387C188.985 129.635 187.91 128.453 187.378 126.751C186.846 125.048 186.976 123.453 187.732 123.204C188.489 122.956 189.553 124.115 190.097 125.84Z" fill="#263238"/>
<path d="M208.928 120.403C209.496 122.117 209.342 123.701 208.574 123.949C207.805 124.197 206.741 123.015 206.209 121.301C205.677 119.587 205.795 118.003 206.564 117.755C207.332 117.506 208.373 118.7 208.928 120.403Z" fill="#263238"/>
<path d="M195.705 117.464L180.912 122.357C179.648 122.775 178.962 124.139 179.38 125.404L181.525 131.891C181.943 133.155 183.308 133.841 184.572 133.423L199.365 128.531C200.629 128.113 201.315 126.749 200.897 125.484L198.752 118.997C198.334 117.732 196.969 117.046 195.705 117.464Z" stroke="#263238" stroke-linecap="round" stroke-linejoin="round"/>
<path d="M198.419 117.814L203.691 116.064" stroke="#263238" stroke-linecap="round" stroke-linejoin="round"/>
<path d="M179.374 125.415L169.929 134.754" stroke="#263238" stroke-linecap="round" stroke-linejoin="round"/>
<path d="M221.684 110.579L214.662 116.501" stroke="#263238" stroke-linecap="round" stroke-linejoin="round"/>
<path d="M219.614 110.227L204.821 115.119C203.557 115.537 202.871 116.901 203.289 118.166L205.434 124.653C205.853 125.918 207.217 126.604 208.481 126.185L223.274 121.293C224.539 120.875 225.225 119.511 224.806 118.246L222.661 111.759C222.243 110.495 220.879 109.809 219.614 110.227Z" stroke="#263238" stroke-linecap="round" stroke-linejoin="round"/>
<path d="M182.2 119.776C182.2 119.776 186.55 114.338 193.064 115.047" stroke="#263238" stroke-width="2" stroke-linecap="round" stroke-linejoin="round"/>
<path d="M202.119 112.163C202.119 112.163 205.015 109.267 210.453 110.721" stroke="#263238" stroke-width="2" stroke-linecap="round" stroke-linejoin="round"/>
<path d="M203.207 119.043C203.207 119.043 214.082 140.062 212.995 141.504C211.907 142.946 204.661 141.504 204.661 141.504" fill="white"/>
<path d="M203.207 119.043C203.207 119.043 214.082 140.062 212.995 141.504C211.907 142.946 204.661 141.504 204.661 141.504" stroke="#263238" stroke-linecap="round" stroke-linejoin="round"/>
<path d="M151.405 201.64C151.405 201.64 145.246 201.64 143.437 207.078C141.628 212.516 124.605 274.46 126.414 276.269C128.223 278.078 151.05 279.532 153.604 278.799C156.157 278.066 166.985 236.419 166.985 236.419" fill="white"/>
<path d="M151.405 201.64C151.405 201.64 145.246 201.64 143.437 207.078C141.628 212.516 124.605 274.46 126.414 276.269C128.223 278.078 151.05 279.532 153.604 278.799C156.157 278.066 166.985 236.419 166.985 236.419" stroke="#263238" stroke-linecap="round" stroke-linejoin="round"/>
<path d="M160.46 277.356C160.46 277.356 161.914 270.11 155.732 267.214C149.549 264.317 139.43 264.672 133.271 269.377C127.112 274.082 126.024 273.006 124.582 282.061C123.14 291.117 129.311 296.909 134.358 297.997C139.406 299.084 143.815 300.172 149.939 294.013C156.063 287.854 160.46 277.356 160.46 277.356Z" fill="white" stroke="#263238" stroke-linecap="round" stroke-linejoin="round"/>
<path d="M198.62 239.209C198.62 239.209 196.09 294.628 186.668 315.28C186.668 315.28 195.724 318.176 210.583 316.734C225.443 315.292 239.191 307.277 239.191 307.277C239.191 307.277 244.263 276.848 246.804 261.989C249.346 247.129 250.788 238.807 250.788 238.807C250.788 238.807 247.525 241.348 229.049 242.436C210.572 243.523 198.62 239.209 198.62 239.209Z" fill="white" stroke="#263238" stroke-linecap="round" stroke-linejoin="round"/>
<path d="M174.953 284.603C174.953 284.603 153.946 271.599 151.05 271.599C148.154 271.599 139.453 274.508 135.836 282.83C132.218 291.152 132.573 295.514 137.278 296.957C141.983 298.399 172.423 301.307 176.041 301.307C179.658 301.307 188.359 303.116 193.43 303.116C198.502 303.116 211.907 301.673 213.716 298.777C215.525 295.881 200.712 296.957 199.589 296.602C198.466 296.247 213.16 293.41 215.17 292.973C217.18 292.535 219.898 289.722 215.891 288.634C215.891 288.634 222.771 285.371 218.421 282.475L198.194 278.929L204.448 277.605C204.448 277.605 218.634 281.388 218.421 277.049C218.35 275.24 206.836 271.611 203.207 271.611C199.577 271.611 180.391 284.615 180.391 284.615L174.953 284.603Z" fill="white" stroke="#263238" stroke-linecap="round" stroke-linejoin="round"/>
<path d="M215.891 288.587L197.414 287.133" stroke="#263238" stroke-linecap="round" stroke-linejoin="round"/>
<path d="M238.565 93.3786C243.162 99.0193 249.335 103.163 256.297 105.283L242.04 130.392L268.485 107.257H269.265C282.044 107.257 293.31 101.748 299.93 93.3668L238.565 93.3786Z" fill="#263238" stroke="#263238" stroke-linecap="round" stroke-linejoin="round"/>
<path d="M268.757 42.629C248.377 42.629 231.838 56.6493 231.838 73.9559C231.838 87.3733 241.804 98.7811 255.789 103.285L241.544 128.394L267.929 105.259H268.757C289.149 105.259 305.687 91.2389 305.687 73.9441C305.687 56.6493 289.102 42.629 268.757 42.629Z" fill="#4F98E4"/>
<path d="M255.658 74.6298C255.658 73.8185 255.418 73.0254 254.967 72.3508C254.516 71.6762 253.876 71.1504 253.126 70.84C252.377 70.5295 251.552 70.4483 250.756 70.6065C249.96 70.7648 249.229 71.1555 248.656 71.7292C248.082 72.3029 247.691 73.0338 247.533 73.8295C247.375 74.6252 247.456 75.45 247.767 76.1996C248.077 76.9491 248.603 77.5898 249.277 78.0405C249.952 78.4912 250.745 78.7318 251.556 78.7318C252.644 78.7318 253.688 78.2996 254.457 77.5304C255.226 76.7611 255.658 75.7177 255.658 74.6298Z" fill="white"/>
<path d="M273.934 74.6298C273.934 73.8185 273.694 73.0254 273.243 72.3508C272.792 71.6762 272.152 71.1504 271.402 70.84C270.653 70.5295 269.828 70.4483 269.032 70.6065C268.236 70.7648 267.506 71.1555 266.932 71.7292C266.358 72.3029 265.967 73.0338 265.809 73.8295C265.651 74.6252 265.732 75.45 266.043 76.1996C266.353 76.9491 266.879 77.5898 267.553 78.0405C268.228 78.4912 269.021 78.7318 269.832 78.7318C270.92 78.7318 271.964 78.2996 272.733 77.5304C273.502 76.7611 273.934 75.7177 273.934 74.6298V74.6298Z" fill="white"/>
<path d="M288.109 78.7318C290.374 78.7318 292.211 76.8953 292.211 74.6298C292.211 72.3643 290.374 70.5277 288.109 70.5277C285.843 70.5277 284.006 72.3643 284.006 74.6298C284.006 76.8953 285.843 78.7318 288.109 78.7318Z" fill="white"/>
<path d="M203.94 398.125C207.87 398.125 211.056 394.939 211.056 391.008C211.056 387.078 207.87 383.892 203.94 383.892C200.009 383.892 196.823 387.078 196.823 391.008C196.823 394.939 200.009 398.125 203.94 398.125Z" fill="#CA29F9"/>
<path d="M203.94 373.028C200.453 373.032 197.043 374.048 194.124 375.954C191.205 377.859 188.902 380.572 187.496 383.762L192.224 388.018C192.895 385.3 194.49 382.901 196.736 381.231C198.981 379.561 201.738 378.724 204.533 378.864C207.328 379.004 209.988 380.112 212.056 381.997C214.124 383.883 215.471 386.429 215.867 389.2L220.702 384.542C219.396 381.156 217.095 378.244 214.104 376.189C211.112 374.135 207.569 373.032 203.94 373.028Z" fill="#CA29F9"/>
<path d="M184.257 380.865C186.14 377.201 189.009 374.136 192.541 372.015C196.072 369.894 200.126 368.801 204.245 368.86C208.365 368.919 212.386 370.127 215.855 372.349C219.325 374.57 222.105 377.716 223.882 381.433L228.327 377.154C225.897 372.867 222.381 369.296 218.132 366.801C213.883 364.306 209.051 362.974 204.124 362.941C199.196 362.907 194.347 364.173 190.064 366.61C185.782 369.047 182.217 372.569 179.729 376.823L184.257 380.865Z" fill="#CA29F9"/>
<path fill-rule="evenodd" clip-rule="evenodd" d="M395.034 42.3689V71.769C395.031 73.253 394.439 74.6753 393.389 75.7235C392.338 76.7718 390.915 77.3606 389.431 77.3605H353.694C352.21 77.3606 350.787 76.7718 349.736 75.7235C348.686 74.6753 348.094 73.253 348.091 71.769V36.0326C348.091 34.5465 348.681 33.1213 349.732 32.0704C350.783 31.0196 352.208 30.4292 353.694 30.4292H385.612" fill="#CA29F9"/>
<path fill-rule="evenodd" clip-rule="evenodd" d="M387.74 43.4919H355.822C355.474 43.4919 355.14 43.6302 354.894 43.8763C354.648 44.1224 354.51 44.4561 354.51 44.8041V63.1629C354.51 63.5109 354.648 63.8447 354.894 64.0908C355.14 64.3368 355.474 64.4751 355.822 64.4751H387.74C388.088 64.4751 388.422 64.3368 388.668 64.0908C388.914 63.8447 389.052 63.5109 389.052 63.1629V44.8041C389.052 44.4561 388.914 44.1224 388.668 43.8763C388.422 43.6302 388.088 43.4919 387.74 43.4919ZM388.166 47.464L377.987 53.753L387.054 60.4558C387.18 60.5481 387.285 60.6641 387.365 60.7972C387.446 60.9304 387.499 61.0781 387.522 61.2318C387.545 61.3855 387.537 61.5423 387.5 61.6931C387.462 61.8439 387.395 61.9859 387.303 62.1108C387.194 62.2598 387.052 62.3812 386.887 62.4654C386.723 62.5496 386.542 62.5941 386.357 62.5955C386.101 62.5955 385.852 62.5125 385.648 62.359L375.812 55.0888L372.171 57.3467L367.892 54.9824L357.891 62.3709C357.689 62.5219 357.445 62.6048 357.193 62.6073C356.942 62.6107 356.696 62.5341 356.492 62.3884C356.287 62.2428 356.134 62.0357 356.055 61.7972C355.976 61.5588 355.975 61.3013 356.052 61.0623C356.129 60.8232 356.281 60.6149 356.484 60.4676L365.622 53.7175L355.255 47.9605C355.119 47.8828 355 47.7792 354.904 47.6555C354.808 47.5318 354.737 47.3905 354.696 47.2396C354.655 47.0886 354.644 46.931 354.664 46.7758C354.684 46.6206 354.734 46.4708 354.811 46.335C354.889 46.1992 354.993 46.08 355.116 45.9842C355.24 45.8884 355.381 45.8179 355.532 45.7767C355.683 45.7356 355.841 45.7245 355.996 45.7442C356.151 45.764 356.301 45.8141 356.437 45.8917L372.148 54.616L386.972 45.4543C387.104 45.3723 387.252 45.3173 387.406 45.2925C387.56 45.2677 387.717 45.2737 387.869 45.3099C388.02 45.3462 388.163 45.4121 388.289 45.5038C388.415 45.5955 388.522 45.7113 388.603 45.8444C388.681 45.9801 388.731 46.1297 388.75 46.2848C388.77 46.4399 388.758 46.5973 388.716 46.7479C388.675 46.8985 388.603 47.0394 388.507 47.1623C388.41 47.2852 388.29 47.3877 388.154 47.464H388.166Z" fill="white"/>
<path fill-rule="evenodd" clip-rule="evenodd" d="M400.744 34.5549C400.744 32.9183 400.258 31.3184 399.349 29.9576C398.44 28.5967 397.147 27.5361 395.635 26.9098C394.123 26.2835 392.459 26.1196 390.854 26.4389C389.249 26.7582 387.775 27.5463 386.617 28.7036C385.46 29.8609 384.672 31.3353 384.353 32.9405C384.033 34.5457 384.197 36.2096 384.823 37.7216C385.45 39.2337 386.51 40.5261 387.871 41.4354C389.232 42.3446 390.832 42.83 392.469 42.83C394.663 42.83 396.768 41.9581 398.32 40.4063C399.872 38.8544 400.744 36.7496 400.744 34.5549V34.5549Z" fill="#F0AE00"/>
<path fill-rule="evenodd" clip-rule="evenodd" d="M511.984 352.411V381.823C511.981 383.307 511.389 384.729 510.339 385.778C509.288 386.826 507.865 387.415 506.381 387.415H470.656C469.172 387.415 467.749 386.826 466.698 385.778C465.648 384.729 465.056 383.307 465.053 381.823V346.075C465.053 344.589 465.643 343.164 466.694 342.113C467.745 341.062 469.17 340.471 470.656 340.471H502.574" fill="#CA29F9"/>
<path fill-rule="evenodd" clip-rule="evenodd" d="M517.705 344.597C517.705 342.961 517.22 341.361 516.311 340C515.402 338.639 514.109 337.578 512.597 336.952C511.085 336.326 509.421 336.162 507.816 336.481C506.211 336.8 504.736 337.589 503.579 338.746C502.422 339.903 501.634 341.378 501.314 342.983C500.995 344.588 501.159 346.252 501.785 347.764C502.412 349.276 503.472 350.568 504.833 351.478C506.194 352.387 507.794 352.872 509.43 352.872C511.625 352.872 513.73 352 515.282 350.449C516.834 348.897 517.705 346.792 517.705 344.597V344.597Z" fill="#F0AE00"/>
<path fill-rule="evenodd" clip-rule="evenodd" d="M488.767 348.64C480.385 348.64 473.6 354.444 473.6 361.644C473.655 363.762 474.251 365.831 475.331 367.654C476.411 369.476 477.939 370.993 479.77 372.058L479.085 378.087L485.291 374.245C486.435 374.479 487.599 374.598 488.767 374.6C497.148 374.6 503.945 368.796 503.945 361.596C503.945 354.397 497.148 348.64 488.767 348.64Z" fill="white"/>
<defs>
<linearGradient id="paint0_linear_8:7" x1="196" y1="142.5" x2="196.22" y2="317.467" gradientUnits="userSpaceOnUse">
<stop stop-color="#CA29F9"/>
<stop offset="1" stop-color="#4F98E4"/>
</linearGradient>
</defs>
</svg>
