<svg width="23" height="30" viewBox="0 0 23 30" fill="none" xmlns="http://www.w3.org/2000/svg">
<path d="M20.125 10H18.6875V7.14286C18.6875 3.2 15.4675 0 11.5 0C7.5325 0 4.3125 3.2 4.3125 7.14286V10H2.875C1.29375 10 0 11.2857 0 12.8571V27.1429C0 28.7143 1.29375 30 2.875 30H20.125C21.7062 30 23 28.7143 23 27.1429V12.8571C23 11.2857 21.7062 10 20.125 10ZM11.5 22.8571C9.91875 22.8571 8.625 21.5714 8.625 20C8.625 18.4286 9.91875 17.1429 11.5 17.1429C13.0813 17.1429 14.375 18.4286 14.375 20C14.375 21.5714 13.0813 22.8571 11.5 22.8571ZM15.9563 10H7.04375V7.14286C7.04375 4.7 9.04187 2.71429 11.5 2.71429C13.9581 2.71429 15.9563 4.7 15.9563 7.14286V10Z" fill="url(#paint0_linear_6_55)" fill-opacity="0.4"/>
<defs>
<linearGradient id="paint0_linear_6_55" x1="2.5" y1="2.5" x2="23" y2="30" gradientUnits="userSpaceOnUse">
<stop stop-color="#4F98E4"/>
<stop offset="1" stop-color="#CA29F9"/>
</linearGradient>
</defs>
</svg>
