<svg width="17" height="15" viewBox="0 0 17 15" fill="none" xmlns="http://www.w3.org/2000/svg">
<path fill-rule="evenodd" clip-rule="evenodd" d="M-0.000366211 7.37579C-0.000366211 7.65519 0.110626 7.92315 0.308193 8.12072C0.505762 8.31829 0.773724 8.42928 1.05313 8.42928H13.2589L8.73521 12.9509C8.63726 13.0488 8.55956 13.1651 8.50655 13.2931C8.45354 13.4211 8.42626 13.5582 8.42626 13.6968C8.42626 13.8353 8.45354 13.9724 8.50655 14.1004C8.55956 14.2284 8.63726 14.3447 8.73521 14.4426C8.83316 14.5406 8.94944 14.6183 9.07742 14.6713C9.20539 14.7243 9.34256 14.7516 9.48108 14.7516C9.6196 14.7516 9.75677 14.7243 9.88474 14.6713C10.0127 14.6183 10.129 14.5406 10.227 14.4426L16.5479 8.12166C16.646 8.0238 16.7239 7.90755 16.777 7.77956C16.8301 7.65157 16.8574 7.51436 16.8574 7.37579C16.8574 7.23722 16.8301 7.10001 16.777 6.97202C16.7239 6.84403 16.646 6.72778 16.5479 6.62992L10.227 0.308951C10.0291 0.111133 9.76084 0 9.48108 0C9.20132 0 8.93302 0.111133 8.73521 0.308951C8.53739 0.506769 8.42626 0.775068 8.42626 1.05483C8.42626 1.33458 8.53739 1.60288 8.73521 1.8007L13.2589 6.3223H1.05313C0.773724 6.3223 0.505762 6.43329 0.308193 6.63086C0.110626 6.82843 -0.000366211 7.09639 -0.000366211 7.37579Z" fill="white"/>
</svg>
