<svg width="17" height="15" viewBox="0 0 17 15" fill="none" xmlns="http://www.w3.org/2000/svg">
  <path fill-rule="evenodd" clip-rule="evenodd"
        d="M0.00012207 7.37579C0.00012207 7.65519 0.111115 7.92315 0.308681 8.12072C0.50625 8.31829 0.774212 8.42928 1.05362 8.42928H13.2594L8.73569 12.9509C8.63774 13.0488 8.56005 13.1651 8.50704 13.2931C8.45403 13.4211 8.42674 13.5582 8.42674 13.6968C8.42674 13.8353 8.45403 13.9724 8.50704 14.1004C8.56005 14.2284 8.63774 14.3447 8.73569 14.4426C8.83364 14.5406 8.94993 14.6183 9.0779 14.6713C9.20588 14.7243 9.34305 14.7516 9.48157 14.7516C9.62009 14.7516 9.75726 14.7243 9.88523 14.6713C10.0132 14.6183 10.1295 14.5406 10.2274 14.4426L16.5484 8.12166C16.6465 8.0238 16.7244 7.90755 16.7775 7.77956C16.8306 7.65157 16.8579 7.51436 16.8579 7.37579C16.8579 7.23722 16.8306 7.10001 16.7775 6.97202C16.7244 6.84403 16.6465 6.72778 16.5484 6.62992L10.2274 0.308951C10.0296 0.111133 9.76133 0 9.48157 0C9.20181 0 8.93351 0.111133 8.73569 0.308951C8.53788 0.506769 8.42674 0.775068 8.42674 1.05483C8.42674 1.33458 8.53788 1.60288 8.73569 1.8007L13.2594 6.3223H1.05362C0.774212 6.3223 0.50625 6.43329 0.308681 6.63086C0.111115 6.82843 0.00012207 7.09639 0.00012207 7.37579Z"
        fill="white"/>
</svg>
