<svg width="29" height="34" viewBox="0 0 29 34" fill="none" xmlns="http://www.w3.org/2000/svg">
<path d="M26.6744 24.1181C24.7989 21.8227 23.4748 20.6541 23.4748 14.3257C23.4748 8.53038 20.5154 6.46569 18.0797 5.46293C17.7562 5.33001 17.4516 5.02472 17.353 4.69242C16.9258 3.2383 15.728 1.95728 14.1359 1.95728C12.5437 1.95728 11.3452 3.23903 10.9223 4.69388C10.8237 5.02984 10.5192 5.33001 10.1956 5.46293C7.75703 6.46715 4.80059 8.52454 4.80059 14.3257C4.79694 20.6541 3.47283 21.8227 1.5973 24.1181C0.820214 25.069 1.5009 26.4969 2.86007 26.4969H25.419C26.7708 26.4969 27.4471 25.0647 26.6744 24.1181Z" stroke="#B7B4B4" stroke-width="2.5" stroke-linecap="round" stroke-linejoin="round"/>
<path d="M18.8101 26.4969V27.6655C18.8101 28.9052 18.3176 30.0941 17.441 30.9707C16.5645 31.8472 15.3756 32.3397 14.1359 32.3397C12.8962 32.3397 11.7073 31.8472 10.8307 30.9707C9.95413 30.0941 9.46167 28.9052 9.46167 27.6655V26.4969" stroke="#B7B4B4" stroke-width="2.5" stroke-linecap="round" stroke-linejoin="round"/>
</svg>
