<svg width="24" height="26" viewBox="0 0 24 26" fill="none" xmlns="http://www.w3.org/2000/svg">
<path d="M10.5 0C6.88144 0 3.9375 2.80375 3.9375 6.25V10H2.625C1.17731 10 0 11.1213 0 12.5V22.5C0 23.8787 1.17731 25 2.625 25H18.375C19.8227 25 21 23.8787 21 22.5V12.5C21 11.1213 19.8227 10 18.375 10H17.0625V6.25C17.0625 2.80375 14.1186 0 10.5 0ZM18.375 12.5L18.3776 22.5H2.625V12.5H18.375ZM6.5625 10V6.25C6.5625 4.1825 8.32913 2.5 10.5 2.5C12.6709 2.5 14.4375 4.1825 14.4375 6.25V10H6.5625Z" fill="url(#paint0_linear_416_20)" fill-opacity="0.5"/>
<defs>
<linearGradient id="paint0_linear_416_20" x1="10.5" y1="0" x2="10.5" y2="25" gradientUnits="userSpaceOnUse">
<stop stop-color="#699BF7"/>
<stop offset="1" stop-color="#CA29F9"/>
</linearGradient>
</defs>
</svg>
