<svg width="18" height="21" viewBox="0 0 18 21" fill="none" xmlns="http://www.w3.org/2000/svg">
  <path
    d="M0.252441 4.49609C0.252441 3.31836 0.634766 2.36475 1.39941 1.63525C2.16406 0.896973 3.16602 0.527832 4.40527 0.527832C5.66211 0.527832 6.67285 0.892578 7.4375 1.62207C8.20215 2.34277 8.58447 3.32275 8.58447 4.56201V5.51123C8.58447 6.69775 8.20215 7.65137 7.4375 8.37207C6.67285 9.09277 5.6709 9.45312 4.43164 9.45312C3.18359 9.45312 2.17285 9.09277 1.39941 8.37207C0.634766 7.64258 0.252441 6.6626 0.252441 5.43213V4.49609ZM2.78369 5.51123C2.78369 6.03857 2.93311 6.46484 3.23193 6.79004C3.53955 7.10645 3.93945 7.26465 4.43164 7.26465C4.92383 7.26465 5.31494 7.10205 5.60498 6.77686C5.89502 6.45166 6.04004 6.0166 6.04004 5.47168V4.49609C6.04004 3.96875 5.89502 3.54248 5.60498 3.21729C5.31494 2.89209 4.91504 2.72949 4.40527 2.72949C3.92188 2.72949 3.53076 2.89209 3.23193 3.21729C2.93311 3.53369 2.78369 3.97754 2.78369 4.54883V5.51123ZM9.42822 15.2935C9.42822 14.1069 9.81494 13.1533 10.5884 12.4326C11.3618 11.7031 12.3638 11.3384 13.5942 11.3384C14.8423 11.3384 15.8486 11.6987 16.6133 12.4194C17.3867 13.1313 17.7734 14.1157 17.7734 15.3726V16.3218C17.7734 17.4995 17.3955 18.4531 16.6396 19.1826C15.8838 19.9033 14.8774 20.2637 13.6206 20.2637C12.355 20.2637 11.3398 19.8989 10.5752 19.1694C9.81055 18.4399 9.42822 17.4731 9.42822 16.269V15.2935ZM11.9595 16.3218C11.9595 16.8052 12.1177 17.2183 12.4341 17.561C12.7505 17.9038 13.146 18.0752 13.6206 18.0752C14.6929 18.0752 15.229 17.4819 15.229 16.2954V15.2935C15.229 14.7661 15.0796 14.3442 14.7808 14.0278C14.4819 13.7026 14.0864 13.54 13.5942 13.54C13.1021 13.54 12.7065 13.7026 12.4077 14.0278C12.1089 14.3442 11.9595 14.7793 11.9595 15.333V16.3218ZM5.18311 18.563L3.32422 17.561L12.6978 2.55811L14.5566 3.56006L5.18311 18.563Z"
    fill="url(#paint0_linear_52_750)" fill-opacity="0.5"/>
  <defs>
    <linearGradient id="paint0_linear_52_750" x1="9.58824" y1="25.1538" x2="9.58824" y2="1.15385" gradientUnits="userSpaceOnUse">
      <stop stop-color="#CA29F9"/>
      <stop offset="1" stop-color="#4F98E4"/>
    </linearGradient>
  </defs>
</svg>
