<svg width="29" height="33" viewBox="0 0 29 33" fill="none" xmlns="http://www.w3.org/2000/svg">
<path d="M4.21779 26.3998H29V0H4.14939C3.04999 0.00355305 1.99663 0.444119 1.21923 1.22553C0.441837 2.00695 0.00353479 3.06575 0 4.17083V28.4795H0.000752467C0.000752467 28.4899 0 28.5001 0 28.5107C0 30.9444 1.90018 33 4.14939 33H29V30.7998H4.14939C3.12325 30.7998 2.18868 29.7087 2.18868 28.5104C2.18868 27.3665 3.11784 26.3998 4.21779 26.3998ZM21.8868 2.22288V14.1039L18.5764 11.1827L15.3208 14.0868V2.22288H21.8868ZM13.1321 2.19999V17.0499H15.2962L18.5843 14.1171L21.9077 17.0499H24.0755V2.19999H26.8113V24.1998H6.57151L6.56604 2.19999H13.1321ZM4.14939 2.19999H4.37736L4.38256 24.1998H4.21752C3.50584 24.2 2.80653 24.3868 2.18868 24.7418V4.18802C2.18701 3.66322 2.3925 3.15918 2.76008 2.78648C3.12765 2.41378 3.6273 2.20286 4.14939 2.19999Z" fill="white"/>
</svg>
