<svg width="21" height="23" viewBox="0 0 21 23" fill="none" xmlns="http://www.w3.org/2000/svg">
<path d="M5.25006 5.58826C5.018 5.58826 4.79544 5.66185 4.63134 5.79285C4.46725 5.92385 4.37506 6.10152 4.37506 6.28679C4.37506 6.47205 4.46725 6.64972 4.63134 6.78072C4.79544 6.91172 5.018 6.98532 5.25006 6.98532H15.7501C15.9821 6.98532 16.2047 6.91172 16.3688 6.78072C16.5329 6.64972 16.6251 6.47205 16.6251 6.28679C16.6251 6.10152 16.5329 5.92385 16.3688 5.79285C16.2047 5.66185 15.9821 5.58826 15.7501 5.58826H5.25006ZM4.37506 9.0809C4.37506 8.89564 4.46725 8.71797 4.63134 8.58697C4.79544 8.45597 5.018 8.38237 5.25006 8.38237H15.7501C15.9821 8.38237 16.2047 8.45597 16.3688 8.58697C16.5329 8.71797 16.6251 8.89564 16.6251 9.0809C16.6251 9.26617 16.5329 9.44384 16.3688 9.57484C16.2047 9.70584 15.9821 9.77943 15.7501 9.77943H5.25006C5.018 9.77943 4.79544 9.70584 4.63134 9.57484C4.46725 9.44384 4.37506 9.26617 4.37506 9.0809ZM5.25006 11.1765C5.018 11.1765 4.79544 11.2501 4.63134 11.3811C4.46725 11.5121 4.37506 11.6898 4.37506 11.875C4.37506 12.0603 4.46725 12.238 4.63134 12.369C4.79544 12.5 5.018 12.5736 5.25006 12.5736H15.7501C15.9821 12.5736 16.2047 12.5 16.3688 12.369C16.5329 12.238 16.6251 12.0603 16.6251 11.875C16.6251 11.6898 16.5329 11.5121 16.3688 11.3811C16.2047 11.2501 15.9821 11.1765 15.7501 11.1765H5.25006ZM5.25006 13.9706C5.018 13.9706 4.79544 14.0442 4.63134 14.1752C4.46725 14.3062 4.37506 14.4839 4.37506 14.6691C4.37506 14.8544 4.46725 15.0321 4.63134 15.1631C4.79544 15.2941 5.018 15.3677 5.25006 15.3677H10.5001C10.7321 15.3677 10.9547 15.2941 11.1188 15.1631C11.2829 15.0321 11.3751 14.8544 11.3751 14.6691C11.3751 14.4839 11.2829 14.3062 11.1188 14.1752C10.9547 14.0442 10.7321 13.9706 10.5001 13.9706H5.25006Z" fill="#747474"/>
<path d="M0 2.79412C0 2.05307 0.368749 1.34238 1.02513 0.818378C1.6815 0.294379 2.57174 0 3.5 0L17.5 0C18.4283 0 19.3185 0.294379 19.9749 0.818378C20.6313 1.34238 21 2.05307 21 2.79412V19.5588C21 20.2999 20.6313 21.0106 19.9749 21.5346C19.3185 22.0586 18.4283 22.3529 17.5 22.3529H3.5C2.57174 22.3529 1.6815 22.0586 1.02513 21.5346C0.368749 21.0106 0 20.2999 0 19.5588V2.79412ZM17.5 1.39706H3.5C3.03587 1.39706 2.59075 1.54425 2.26256 1.80625C1.93437 2.06825 1.75 2.42359 1.75 2.79412V19.5588C1.75 19.9293 1.93437 20.2847 2.26256 20.5467C2.59075 20.8087 3.03587 20.9559 3.5 20.9559H17.5C17.9641 20.9559 18.4092 20.8087 18.7374 20.5467C19.0656 20.2847 19.25 19.9293 19.25 19.5588V2.79412C19.25 2.42359 19.0656 2.06825 18.7374 1.80625C18.4092 1.54425 17.9641 1.39706 17.5 1.39706Z" fill="#747474"/>
</svg>
